<svg xmlns="http://www.w3.org/2000/svg" fill="none" viewBox="0 0 394 80">
  <path
    fill="#000"
    d="M262 0h68.5v12.7h-27.2v66.7h-13.6V12.7H262V0ZM149 0v12.7h94.2v20h-63.3v17.7h63.3v16.5h-63.3V80H149V0Zm-28.3 18.7v61.4h-13.6V18.7h13.6ZM93.8 18.7v61.4H80.2V18.7h13.6Zm-49.4 0v12.7h25.5v48.7H92.1V80H44.4V18.7Z"
  />
  <path
    fill="#000"
    d="M81.3 28.3h13.6v31.4c0 16.5-9.8 24.3-23.9 24.3-14.2 0-24.1-8.2-24.1-24.3V28.3h13.6v30.6c0 8.2 4.2 12.5 10.5 12.5 6.3 0 10.3-4.2 10.3-12.5V28.3Z"
  />
</svg>
